# xmcd
#
# Track frame offsets: 
#        150
#        21415
#        39563
#        59198
#        79943
#        107760
#        126005
#        140318
#        159478
#        173203
#        189480
#
# Disc length: 2827 seconds
#
# Revision: 0
# Processed by: cddbd v1.5.2PL0 Copyright (c) Steve Scherf et al.
# Submitted via: ExactAudioCopy v1.1
#
DISCID=980b090b
DTITLE=张立基 - 妳好吗
DYEAR=1988
DGENRE=
TTITLE0=妳好吗？！
TTITLE1=放心
TTITLE2=再一次
TTITLE3=LINDA
TTITLE4=心跳（REMIX）
TTITLE5=讲我知
TTITLE6=再见女郎
TTITLE7=爱人讲再见
TTITLE8=情义两相牵
TTITLE9=笑话
TTITLE10=自焚
EXTD=
EXTT0=
EXTT1=
EXTT2=
EXTT3=
EXTT4=
EXTT5=
EXTT6=
EXTT7=
EXTT8=
EXTT9=
EXTT10=
PLAYORDER=
